# xmcd
#
# Track frame offsets:
# 150
# 20521
# 37686
# 59466
# 84558
# 104723
# 119394
# 142081
# 157957
# 179613
# 201776
# 217805
#
# Disc length: 3162 seconds
#
#
# Revision: 0
# Processed by: cddbd v1.5.1PL2 Copyright (c) Steve Scherf et al.
# Submitted via: Nero 7, 0, 5, 4 
#
DISCID=a60c580c
DTITLE=Albert Cummings - Working Man
DYEAR=2006
DGENRE=blues
TTITLE0=Say You Love Me
TTITLE1=I Feel Good
TTITLE2=Girls To Shame
TTITLE3=Let Me Be
TTITLE4=Feeling End
TTITLE5=Party Right Here
TTITLE6=I'm Free
TTITLE7=First Day
TTITLE8=I'm On My Way
TTITLE9=Rumors
TTITLE10=Please
TTITLE11=Last Dance
EXTD=
EXTT0=
EXTT1=
EXTT2=
EXTT3=
EXTT4=
EXTT5=
EXTT6=
EXTT7=
EXTT8=
EXTT9=
EXTT10=
EXTT11=
PLAYORDER=
